<mxfile host="Electron" agent="Mozilla/5.0 (X11; Linux x86_64) AppleWebKit/537.36 (KHTML, like Gecko) draw.io/24.7.17 Chrome/128.0.6613.36 Electron/32.0.1 Safari/537.36" version="24.7.17">
  <diagram name="Page-1" id="3DxTxx3s_2lFLftsw2ea">
    <mxGraphModel dx="1195" dy="703" grid="1" gridSize="10" guides="1" tooltips="1" connect="1" arrows="1" fold="1" page="1" pageScale="1" pageWidth="1169" pageHeight="827" math="1" shadow="0">
      <root>
        <mxCell id="0" />
        <mxCell id="1" parent="0" />
        <mxCell id="XW_JtC9_KYco0WAXq-mG-27" value="" style="rounded=1;whiteSpace=wrap;html=1;fillColor=#f8cecc;strokeColor=#b85450;" vertex="1" parent="1">
          <mxGeometry x="140" y="170" width="550" height="430" as="geometry" />
        </mxCell>
        <mxCell id="XW_JtC9_KYco0WAXq-mG-24" value="" style="rounded=0;whiteSpace=wrap;html=1;dashed=1;fillColor=#f8cecc;strokeColor=#b85450;" vertex="1" parent="1">
          <mxGeometry x="190" y="296.5" width="410" height="193.5" as="geometry" />
        </mxCell>
        <mxCell id="XW_JtC9_KYco0WAXq-mG-14" value="" style="rounded=1;whiteSpace=wrap;html=1;rotation=90;" vertex="1" parent="1">
          <mxGeometry x="380" y="390" width="80" height="280" as="geometry" />
        </mxCell>
        <mxCell id="XW_JtC9_KYco0WAXq-mG-15" value="$$\text{Physical-to-Logical Qubit Mapping}$$" style="text;html=1;align=center;verticalAlign=middle;whiteSpace=wrap;rounded=0;rotation=0;" vertex="1" parent="1">
          <mxGeometry x="279.99" y="530" width="280" height="30" as="geometry" />
        </mxCell>
        <mxCell id="XW_JtC9_KYco0WAXq-mG-18" style="edgeStyle=orthogonalEdgeStyle;rounded=0;orthogonalLoop=1;jettySize=auto;html=1;exitX=0.5;exitY=1;exitDx=0;exitDy=0;" edge="1" parent="1" source="XW_JtC9_KYco0WAXq-mG-1">
          <mxGeometry relative="1" as="geometry">
            <mxPoint x="360" y="440" as="targetPoint" />
          </mxGeometry>
        </mxCell>
        <mxCell id="XW_JtC9_KYco0WAXq-mG-1" value="" style="ellipse;whiteSpace=wrap;html=1;aspect=fixed;fillColor=#e51400;fontColor=#ffffff;strokeColor=#B20000;" vertex="1" parent="1">
          <mxGeometry x="350" y="380" width="20" height="20" as="geometry" />
        </mxCell>
        <mxCell id="XW_JtC9_KYco0WAXq-mG-17" style="edgeStyle=orthogonalEdgeStyle;rounded=0;orthogonalLoop=1;jettySize=auto;html=1;" edge="1" parent="1" source="XW_JtC9_KYco0WAXq-mG-2">
          <mxGeometry relative="1" as="geometry">
            <mxPoint x="420" y="440" as="targetPoint" />
          </mxGeometry>
        </mxCell>
        <mxCell id="XW_JtC9_KYco0WAXq-mG-2" value="" style="ellipse;whiteSpace=wrap;html=1;aspect=fixed;fillColor=#e51400;fontColor=#ffffff;strokeColor=#B20000;" vertex="1" parent="1">
          <mxGeometry x="410" y="380" width="20" height="20" as="geometry" />
        </mxCell>
        <mxCell id="XW_JtC9_KYco0WAXq-mG-16" style="edgeStyle=orthogonalEdgeStyle;rounded=0;orthogonalLoop=1;jettySize=auto;html=1;exitX=0.5;exitY=1;exitDx=0;exitDy=0;" edge="1" parent="1" source="XW_JtC9_KYco0WAXq-mG-3">
          <mxGeometry relative="1" as="geometry">
            <mxPoint x="470" y="440" as="targetPoint" />
          </mxGeometry>
        </mxCell>
        <mxCell id="XW_JtC9_KYco0WAXq-mG-3" value="" style="ellipse;whiteSpace=wrap;html=1;aspect=fixed;fillColor=#e51400;fontColor=#ffffff;strokeColor=#B20000;" vertex="1" parent="1">
          <mxGeometry x="460" y="380" width="20" height="20" as="geometry" />
        </mxCell>
        <mxCell id="XW_JtC9_KYco0WAXq-mG-19" value="$$\text{Flying-Qubit Register}$$" style="text;html=1;align=center;verticalAlign=middle;whiteSpace=wrap;rounded=0;" vertex="1" parent="1">
          <mxGeometry x="347.5" y="350" width="145" height="30" as="geometry" />
        </mxCell>
        <mxCell id="XW_JtC9_KYco0WAXq-mG-6" value="" style="rounded=1;whiteSpace=wrap;html=1;rotation=90;container=0;fillColor=#E8E8E8;" vertex="1" parent="1">
          <mxGeometry x="400" y="209" width="30" height="205" as="geometry" />
        </mxCell>
        <mxCell id="XW_JtC9_KYco0WAXq-mG-7" value="$$\text{Flying-Qubit Transmitter}$$" style="text;html=1;align=center;verticalAlign=middle;whiteSpace=wrap;rounded=0;rotation=0;container=0;" vertex="1" parent="1">
          <mxGeometry x="335" y="296.5" width="160" height="30" as="geometry" />
        </mxCell>
        <mxCell id="XW_JtC9_KYco0WAXq-mG-20" value="$$\text{}$$" style="rounded=1;whiteSpace=wrap;html=1;" vertex="1" parent="1">
          <mxGeometry x="280" y="236.5" width="280" height="60" as="geometry" />
        </mxCell>
        <mxCell id="XW_JtC9_KYco0WAXq-mG-21" value="$$\text{ARM-Based Microcontroller}$$" style="text;html=1;align=center;verticalAlign=middle;whiteSpace=wrap;rounded=0;" vertex="1" parent="1">
          <mxGeometry x="280" y="251.5" width="280" height="30" as="geometry" />
        </mxCell>
        <mxCell id="XW_JtC9_KYco0WAXq-mG-22" value="" style="rounded=1;whiteSpace=wrap;html=1;rotation=90;container=0;fillColor=#E8E8E8;" vertex="1" parent="1">
          <mxGeometry x="405.93" y="373.45" width="28.12" height="205" as="geometry" />
        </mxCell>
        <mxCell id="XW_JtC9_KYco0WAXq-mG-23" value="$$\text{Flying-Qubit Detector}$$" style="text;html=1;align=center;verticalAlign=middle;whiteSpace=wrap;rounded=0;rotation=0;container=0;" vertex="1" parent="1">
          <mxGeometry x="340" y="460" width="160" height="27.5" as="geometry" />
        </mxCell>
        <mxCell id="XW_JtC9_KYco0WAXq-mG-25" value="$$\text{Quantum}$$" style="text;html=1;align=center;verticalAlign=middle;whiteSpace=wrap;rounded=0;" vertex="1" parent="1">
          <mxGeometry x="190" y="296.5" width="70" height="30" as="geometry" />
        </mxCell>
        <mxCell id="XW_JtC9_KYco0WAXq-mG-26" value="$$\text{Channel}$$" style="text;html=1;align=center;verticalAlign=middle;whiteSpace=wrap;rounded=0;" vertex="1" parent="1">
          <mxGeometry x="190" y="320" width="70" height="20" as="geometry" />
        </mxCell>
        <mxCell id="XW_JtC9_KYco0WAXq-mG-28" value="$$\text{Flying-Qubit Detection Subsystem}$$" style="text;html=1;align=center;verticalAlign=middle;whiteSpace=wrap;rounded=0;" vertex="1" parent="1">
          <mxGeometry x="287.49" y="179" width="265" height="30" as="geometry" />
        </mxCell>
        <mxCell id="XW_JtC9_KYco0WAXq-mG-29" value="$$\text{FPGA}$$" style="text;html=1;align=center;verticalAlign=middle;whiteSpace=wrap;rounded=0;" vertex="1" parent="1">
          <mxGeometry x="389.99" y="500" width="60" height="30" as="geometry" />
        </mxCell>
        <mxCell id="XW_JtC9_KYco0WAXq-mG-30" value="" style="endArrow=classic;startArrow=classic;html=1;rounded=0;entryX=1;entryY=0.5;entryDx=0;entryDy=0;exitX=1;exitY=0;exitDx=0;exitDy=0;" edge="1" parent="1" source="XW_JtC9_KYco0WAXq-mG-15" target="XW_JtC9_KYco0WAXq-mG-21">
          <mxGeometry width="50" height="50" relative="1" as="geometry">
            <mxPoint x="400" y="460" as="sourcePoint" />
            <mxPoint x="450" y="410" as="targetPoint" />
            <Array as="points">
              <mxPoint x="620" y="530" />
              <mxPoint x="620" y="266" />
            </Array>
          </mxGeometry>
        </mxCell>
        <mxCell id="XW_JtC9_KYco0WAXq-mG-31" value="$$\text{Classical}$$" style="text;html=1;align=center;verticalAlign=middle;whiteSpace=wrap;rounded=0;" vertex="1" parent="1">
          <mxGeometry x="620" y="370" width="60" height="30" as="geometry" />
        </mxCell>
        <mxCell id="XW_JtC9_KYco0WAXq-mG-32" value="$$\text{Channel}$$" style="text;html=1;align=center;verticalAlign=middle;whiteSpace=wrap;rounded=0;" vertex="1" parent="1">
          <mxGeometry x="620" y="390" width="60" height="30" as="geometry" />
        </mxCell>
      </root>
    </mxGraphModel>
  </diagram>
</mxfile>
